<?xml version="1.0" standalone="no"?>
<!DOCTYPE svg PUBLIC "-//W3C//DTD SVG 20010904//EN"
 "http://www.w3.org/TR/2001/REC-SVG-20010904/DTD/svg10.dtd">
<svg version="1.0" xmlns="http://www.w3.org/2000/svg"
 width="360.000000pt" height="360.000000pt" viewBox="0 0 360.000000 360.000000"
 preserveAspectRatio="xMidYMid meet">

<g transform="translate(0.000000,360.000000) scale(0.100000,-0.100000)"
fill="#000000" stroke="none">
<path d="M1650 3569 c-718 -40 -1354 -496 -1553 -1114 -53 -166 -62 -226 -62
-435 0 -155 4 -211 19 -275 63 -272 196 -513 394 -717 54 -56 55 -57 49 -103
-17 -117 -77 -200 -260 -352 -76 -64 -154 -136 -172 -162 -84 -114 -85 -241
-3 -295 51 -33 173 -49 337 -43 206 7 359 42 581 133 136 57 336 172 441 255
36 28 37 28 100 17 89 -16 445 -16 539 1 439 76 776 249 1051 539 195 204 320
440 380 712 33 149 33 416 0 570 -59 277 -189 515 -396 729 -368 379 -880 571
-1445 540z m445 -299 c527 -105 946 -450 1093 -900 41 -125 54 -210 54 -355 0
-324 -121 -606 -362 -845 -223 -222 -509 -362 -860 -421 -102 -17 -392 -17
-512 0 -113 17 -113 17 -221 -63 -243 -179 -558 -307 -817 -331 l-74 -7 84 70
c146 120 242 260 280 406 22 87 28 202 12 233 -6 11 -45 53 -87 94 -394 381
-494 913 -260 1381 58 116 121 204 225 312 227 236 527 385 890 442 129 20
416 12 555 -16z"/>
</g>
</svg>
