<?xml version="1.0" standalone="no"?>
<!DOCTYPE svg PUBLIC "-//W3C//DTD SVG 20010904//EN"
 "http://www.w3.org/TR/2001/REC-SVG-20010904/DTD/svg10.dtd">
<svg version="1.0" xmlns="http://www.w3.org/2000/svg"
 width="400.000000pt" height="360.000000pt" viewBox="0 0 400.000000 360.000000"
 preserveAspectRatio="xMidYMid meet">

<g transform="translate(0.000000,360.000000) scale(0.100000,-0.100000)"
fill="#000000" stroke="none">
<path d="M990 3560 c-360 -42 -699 -288 -852 -617 -81 -175 -102 -295 -95
-528 5 -152 9 -184 40 -305 40 -151 84 -267 159 -415 241 -476 759 -1003 1419
-1445 205 -137 299 -190 339 -190 75 0 531 307 855 576 170 141 475 447 597
599 250 313 397 596 475 920 25 100 27 128 27 310 1 190 -1 205 -28 300 -53
189 -147 347 -285 486 -142 141 -299 230 -493 279 -213 53 -367 49 -567 -16
-189 -62 -394 -203 -524 -361 -56 -68 -62 -73 -74 -56 -145 206 -394 376 -646
442 -92 24 -243 33 -347 21z m231 -211 c267 -36 548 -248 663 -500 41 -92 55
-104 118 -104 43 0 53 4 73 29 12 15 28 46 35 67 14 43 88 158 135 211 51 57
158 143 232 187 217 129 453 152 688 69 137 -48 217 -100 330 -213 113 -113
173 -210 221 -355 27 -81 28 -94 29 -270 0 -171 -3 -193 -29 -295 -115 -447
-431 -892 -956 -1345 -181 -156 -549 -422 -728 -526 -33 -19 -33 -19 -75 5
-73 42 -297 194 -418 283 -316 234 -655 552 -837 784 -67 86 -89 116 -142 194
-230 341 -347 723 -310 1011 56 438 410 762 851 778 20 0 74 -4 120 -10z"/>
</g>
</svg>
